#!OML:ASF X:\für Bonn\!DataBase\2005_08_12_Daniel\c3d\Daniel.ASF
:FULLY-SPECIFIED
:DEGREES
16
root 1.54868 16.8341 -9.20815 -1083.96 43.7835 5.91117
lowerback 29.5627 -1.59194 -5.3216
upperback 10.785 -3.17919 -3.26481
thorax -3.97415 -1.37273 0.437513
lowerneck 4.43992 1.5458 -6.07327
upperneck 18.6757 1.46782 6.22713
head 4.76394 0.737276 3.01172
rclavicle -9.14409e-015 2.38542e-015
rhumerus -34.9999 -8.29008 -83.3495
rradius 31.0903
rwrist 10.1334
rhand -19.3215 -341.124
rfingers 7.12502
rthumb 6.9948 -370.989
lclavicle -9.14409e-015 2.38542e-015
lhumerus -738.163 23.2727 -647.182
lradius 26.5377
lwrist -23.2136
lhand -16.4163 355.919
lfingers 7.12502
lthumb 9.79854 385.671
rfemur 334.929 -18.714 377.449
rtibia 59.9869
rfoot -4.5169 14.1755
rtoes 9.72623
lfemur -11.689 4.97407 -17.5041
ltibia 48.6241
lfoot -21.3042 -10.2039
ltoes 0.342203
17
root 1.63541 16.8359 -9.14973 -1084.07 43.1798 5.93801
lowerback 29.7848 -1.64302 -5.24225
upperback 10.8979 -3.23015 -3.29037
thorax -3.95355 -1.39577 0.383771
lowerneck 4.57138 1.61564 -6.12403
upperneck 18.5756 1.55967 6.17197
head 4.70642 0.772094 3.0015
rclavicle 5.1684e-015 3.57812e-014
rhumerus -35.0508 -8.02413 -83.5827
rradius 31.6142
rwrist 9.9966
rhand -19.0646 -341.18
rfingers 7.12502
rthumb 7.24281 -371.036
lclavicle 5.1684e-015 3.57812e-014
lhumerus -737.837 21.9802 -646.815
lradius 27.3449
lwrist -22.3064
lhand -16.3824 355.659
lfingers 7.12502
lthumb 9.8312 385.409
rfemur 334.62 -19.0199 377.679
rtibia 58.1358
rfoot -5.21582 13.5179
rtoes 10.2141
lfemur -10.9764 5.39706 -17.5045
ltibia 48.4937
lfoot -21.5125 -10.1811
ltoes 0.398035
18
root 1.72108 16.8379 -9.09043 -1084.18 42.5783 5.94498
lowerback 29.9856 -1.69802 -5.16564
upperback 11.0249 -3.28321 -3.30672
thorax -3.90594 -1.42084 0.341545
lowerneck 4.63832 1.68887 -6.19229
upperneck 18.4894 1.65462 6.14238
head 4.66298 0.809322 3.00313
rclavicle -2.26615e-014 1.19271e-014
rhumerus -35.0352 -7.67185 -83.8336
rradius 32.0331
rwrist 9.9013
rhand -18.9144 -341.184
rfingers 7.12502
rthumb 7.38781 -371.035
lclavicle -2.26615e-014 1.19271e-014
lhumerus -737.516 20.7726 -646.468
lradius 28.1942
lwrist -21.3444
lhand -16.4146 355.442
lfingers 7.12502
lthumb 9.80017 385.194
rfemur 334.363 -19.2946 377.911
rtibia 56.2263
rfoot -5.7597 12.7776
rtoes 11.8161
lfemur -10.2562 5.82003 -17.4862
ltibia 48.323
lfoot -21.706 -10.1302
ltoes 0.416198
19
root 1.80456 16.8394 -9.02695 -1084.29 41.9853 5.97324
lowerback 30.1994 -1.73764 -5.10647
upperback 11.1551 -3.32208 -3.333
thorax -3.86011 -1.43868 0.294112
lowerneck 4.64531 1.74684 -6.25105
upperneck 18.4181 1.73105 6.1177
head 4.63503 0.839224 3.00516
rclavicle 3.77691e-014 -2.62396e-014
rhumerus -34.9969 -7.31561 -84.0963
rradius 32.3913
rwrist 9.84446
rhand -18.8067 -341.226
rfingers 7.12502
rthumb 7.49174 -371.074
lclavicle 3.77691e-014 -2.62396e-014
lhumerus -737.218 19.5166 -646.154
lradius 29.0756
lwrist -20.2803
lhand -16.4919 355.211
lfingers 7.12502
lthumb 9.72557 384.967
rfemur 334.171 -19.4791 378.119
rtibia 54.2906
rfoot -6.33521 11.8225
rtoes 13.5693
lfemur -9.49181 6.24677 -17.4623
ltibia 48.1012
lfoot -21.8876 -10.1074
ltoes 0.357411
20
root 1.887 16.8419 -8.95619 -1084.49 41.4022 6.01826
lowerback 30.4456 -1.75859 -5.12279
upperback 11.3239 -3.35388 -3.33908
thorax -3.77788 -1.45543 0.30948
lowerneck 4.60934 1.8113 -6.34887
upperneck 18.3687 1.81547 6.11024
head 4.61966 0.871866 3.02016
rclavicle 1.19271e-014 -2.46493e-014
rhumerus -34.9254 -6.86043 -84.3612
rradius 32.6515
rwrist 9.76895
rhand -18.7972 -341.239
rfingers 7.12502
rthumb 7.50088 -371.086
lclavicle 1.19271e-014 -2.46493e-014
lhumerus -736.964 18.452 -645.857
lradius 30.0053
lwrist -19.2228
lhand -16.598 355.016
lfingers 7.12502
lthumb 9.62327 384.776
rfemur 334.163 -19.5577 378.268
rtibia 52.3088
rfoot -6.96177 10.6344
rtoes 14.8879
lfemur -8.55757 6.65574 -17.4217
ltibia 47.797
lfoot -22.0898 -10.0776
ltoes 0.362051
21
root 1.96823 16.8473 -8.88706 -1084.61 40.8043 6.04462
lowerback 30.6748 -1.76986 -5.09347
upperback 11.4481 -3.36537 -3.34596
thorax -3.74217 -1.46077 0.292325
lowerneck 4.54549 1.85535 -6.4089
upperneck 18.3487 1.87867 6.07039
head 4.62024 0.895517 3.01913
rclavicle -1.94809e-014 1.11319e-014
rhumerus -34.8695 -6.49627 -84.5781
rradius 32.8545
rwrist 9.82964
rhand -18.7975 -341.262
rfingers 7.12502
rthumb 7.5006 -371.109
lclavicle -1.94809e-014 1.11319e-014
lhumerus -736.729 17.3717 -645.585
lradius 30.9342
lwrist -18.1216
lhand -16.6983 354.827
lfingers 7.12502
lthumb 9.52643 384.592
rfemur 334.083 -19.5101 378.458
rtibia 50.2898
rfoot -7.65013 9.16517
rtoes 15.243
lfemur -7.69932 7.0547 -17.3788
ltibia 47.4339
lfoot -22.2603 -10.0301
ltoes 0.314464
22
root 2.04779 16.857 -8.81576 -1084.71 40.1951 6.11023
lowerback 30.8954 -1.77503 -5.11274
upperback 11.5874 -3.38085 -3.35791
thorax -3.68142 -1.4696 0.297727
lowerneck 4.40286 1.90231 -6.46999
upperneck 18.3309 1.95127 6.0173
head 4.63398 0.923638 3.01525
rclavicle 4.33351e-014 1.19271e-014
rhumerus -34.7234 -6.04465 -84.8205
rradius 32.9861
rwrist 9.79828
rhand -18.8027 -341.281
rfingers 7.12502
rthumb 7.49558 -371.128
lclavicle 4.33351e-014 1.19271e-014
lhumerus -736.509 16.4391 -645.337
lradius 31.9058
lwrist -17.0701
lhand -16.818 354.615
lfingers 7.12502
lthumb 9.41093 384.385
rfemur 333.991 -19.2919 378.562
rtibia 48.2107
rfoot -8.23802 7.53661
rtoes 15.887
lfemur -6.79705 7.45796 -17.3669
ltibia 46.9978
lfoot -22.4177 -9.93809
ltoes 0.381505
23
root 2.12756 16.8658 -8.7454 -1084.82 39.5682 6.15594
lowerback 31.1653 -1.76791 -5.10711
upperback 11.6986 -3.37931 -3.35686
thorax -3.67566 -1.46858 0.300019
lowerneck 4.30612 1.94505 -6.53927
upperneck 18.2907 2.01522 5.97441
head 4.63363 0.947267 3.01488
rclavicle 5.68524e-014 1.35174e-014
rhumerus -34.6048 -5.602 -85.004
rradius 33.0892
rwrist 9.7376
rhand -18.692 -341.344
rfingers 7.12502
rthumb 7.6024 -371.187
lclavicle 5.68524e-014 1.35174e-014
lhumerus -736.346 15.4697 -645.089
lradius 32.9073
lwrist -15.9651
lhand -16.9501 354.49
lfingers 7.12502
lthumb 9.28354 384.266
rfemur 333.947 -18.9943 378.654
rtibia 46.1036
rfoot -8.88126 5.84575
rtoes 16.1946
lfemur -5.88192 7.82725 -17.3561
ltibia 46.5436
lfoot -22.6313 -9.80125
ltoes 0.316642
24
root 2.20578 16.8719 -8.67515 -1084.91 38.9457 6.22005
lowerback 31.4324 -1.75896 -5.11476
upperback 11.824 -3.37795 -3.36489
thorax -3.6512 -1.46801 0.299322
lowerneck 4.30184 1.99104 -6.55608
upperneck 18.1311 2.08456 5.89349
head 4.58234 0.974107 2.99043
rclavicle 1.03368e-014 -4.53229e-014
rhumerus -34.4366 -5.22833 -85.1772
rradius 33.1679
rwrist 9.70009
rhand -18.4919 -341.462
rfingers 7.12502
rthumb 7.79563 -371.298
lclavicle 1.03368e-014 -4.53229e-014
lhumerus -736.125 14.6673 -644.863
lradius 33.8515
lwrist -15.0412
lhand -17.1182 354.358
lfingers 7.12502
lthumb 9.12126 384.141
rfemur 333.936 -18.6026 378.683
rtibia 43.9789
rfoot -9.61721 4.17402
rtoes 16.3143
lfemur -4.98817 8.19347 -17.3604
ltibia 46.0957
lfoot -22.8848 -9.67579
ltoes 0.321235
25
root 2.28331 16.8737 -8.60465 -1084.96 38.3153 6.34717
lowerback 31.7034 -1.72436 -5.1626
upperback 11.9403 -3.35801 -3.38773
thorax -3.63691 -1.45863 0.299169
lowerneck 4.47341 2.0316 -6.55923
upperneck 17.8461 2.13847 5.81121
head 4.46508 0.993041 2.95847
rclavicle 2.38542e-014 -1.98785e-014
rhumerus -34.2477 -4.94558 -85.3245
rradius 33.194
rwrist 9.68476
rhand -18.2174 -341.588
rfingers 7.12502
rthumb 8.06056 -371.414
lclavicle 2.38542e-014 -1.98785e-014
lhumerus -735.902 13.7873 -644.653
lradius 34.8092
lwrist -14.1222
lhand -17.2964 354.308
lfingers 7.12502
lthumb 8.94932 384.098
rfemur 333.926 -18.1395 378.641
rtibia 41.8863
rfoot -10.4206 2.50716
rtoes 15.9277
lfemur -4.13618 8.53931 -17.4355
ltibia 45.6969
lfoot -23.1897 -9.50781
ltoes 0.214295
